<svg width="18" height="21" viewBox="0 0 18 21" fill="none" xmlns="http://www.w3.org/2000/svg">
<path d="M2.25 18.6H5.625V12.6C5.625 12.26 5.733 11.9752 5.949 11.7456C6.165 11.516 6.432 11.4008 6.75 11.4H11.25C11.5687 11.4 11.8361 11.5152 12.0521 11.7456C12.2681 11.976 12.3757 12.2608 12.375 12.6V18.6H15.75V7.8L9 2.4L2.25 7.8V18.6ZM0 18.6V7.8C0 7.42 0.0798748 7.06 0.239625 6.72C0.399375 6.38 0.6195 6.1 0.9 5.88L7.65 0.48C8.04375 0.16 8.49375 0 9 0C9.50625 0 9.95625 0.16 10.35 0.48L17.1 5.88C17.3812 6.1 17.6017 6.38 17.7615 6.72C17.9212 7.06 18.0007 7.42 18 7.8V18.6C18 19.26 17.7795 19.8252 17.3385 20.2956C16.8975 20.766 16.368 21.0008 15.75 21H11.25C10.9312 21 10.6642 20.8848 10.449 20.6544C10.2337 20.424 10.1257 20.1392 10.125 19.8V13.8H7.875V19.8C7.875 20.14 7.767 20.4252 7.551 20.6556C7.335 20.886 7.068 21.0008 6.75 21H2.25C1.63125 21 1.10175 20.7652 0.6615 20.2956C0.22125 19.826 0.00075 19.2608 0 18.6Z" fill="#7F7F7F"/>
</svg>
