<svg width="18" height="17" viewBox="0 0 18 17" fill="none" xmlns="http://www.w3.org/2000/svg">
<path d="M12.375 11.5357C12.196 11.5357 12.0243 11.6317 11.8977 11.8025C11.7711 11.9732 11.7 12.2049 11.7 12.4464C11.7 12.688 11.7711 12.9196 11.8977 13.0904C12.0243 13.2612 12.196 13.3571 12.375 13.3571H14.625C14.804 13.3571 14.9757 13.2612 15.1023 13.0904C15.2289 12.9196 15.3 12.688 15.3 12.4464C15.3 12.2049 15.2289 11.9732 15.1023 11.8025C14.9757 11.6317 14.804 11.5357 14.625 11.5357H12.375ZM0 3.94643C0 2.89977 0.308169 1.89598 0.856713 1.15588C1.40526 0.415783 2.14924 0 2.925 0H15.075C15.4591 0 15.8395 0.102078 16.1943 0.300404C16.5492 0.498731 16.8717 0.789422 17.1433 1.15588C17.4149 1.52234 17.6304 1.95739 17.7773 2.4362C17.9243 2.915 18 3.42818 18 3.94643V13.0536C18 13.5718 17.9243 14.085 17.7773 14.5638C17.6304 15.0426 17.4149 15.4777 17.1433 15.8441C16.8717 16.2106 16.5492 16.5013 16.1943 16.6996C15.8395 16.8979 15.4591 17 15.075 17H2.925C2.14924 17 1.40526 16.5842 0.856713 15.8441C0.308169 15.104 0 14.1002 0 13.0536V3.94643ZM16.65 5.46429V3.94643C16.65 3.38284 16.4841 2.84234 16.1887 2.44383C15.8933 2.04531 15.4927 1.82143 15.075 1.82143H2.925C2.50728 1.82143 2.10668 2.04531 1.81131 2.44383C1.51594 2.84234 1.35 3.38284 1.35 3.94643V5.46429H16.65ZM1.35 7.28571V13.0536C1.35 14.2266 2.0556 15.1786 2.925 15.1786H15.075C15.4927 15.1786 15.8933 14.9547 16.1887 14.5562C16.4841 14.1577 16.65 13.6172 16.65 13.0536V7.28571H1.35Z" fill="#7F7F7F"/>
</svg>
